<?xml version="1.0" encoding="UTF-8" standalone="no"?>
<svg
   xmlns:dc="http://purl.org/dc/elements/1.1/"
   xmlns:cc="http://creativecommons.org/ns#"
   xmlns:rdf="http://www.w3.org/1999/02/22-rdf-syntax-ns#"
   xmlns:svg="http://www.w3.org/2000/svg"
   xmlns="http://www.w3.org/2000/svg"
   xmlns:sodipodi="http://sodipodi.sourceforge.net/DTD/sodipodi-0.dtd"
   xmlns:inkscape="http://www.inkscape.org/namespaces/inkscape"
   viewBox="0 0 71.999999 76.800079"
   width="0.75in"
   height="0.80000001in"
   version="1.1"
   id="svg1097"
   sodipodi:docname="discord.svg"
   inkscape:version="1.0.2 (e86c870879, 2021-01-15, custom)">
  <metadata
     id="metadata1103">
    <rdf:RDF>
      <cc:Work
         rdf:about="">
        <dc:format>image/svg+xml</dc:format>
        <dc:type
           rdf:resource="http://purl.org/dc/dcmitype/StillImage" />
        <dc:title></dc:title>
      </cc:Work>
    </rdf:RDF>
  </metadata>
  <defs
     id="defs1101" />
  <sodipodi:namedview
     pagecolor="#ffffff"
     bordercolor="#666666"
     borderopacity="1"
     objecttolerance="10"
     gridtolerance="10"
     guidetolerance="10"
     inkscape:pageopacity="0"
     inkscape:pageshadow="2"
     inkscape:window-width="1920"
     inkscape:window-height="1001"
     id="namedview1099"
     showgrid="false"
     inkscape:zoom="8.3"
     inkscape:cx="50"
     inkscape:cy="46.203358"
     inkscape:window-x="-9"
     inkscape:window-y="-9"
     inkscape:window-maximized="1"
     inkscape:current-layer="svg1097"
     inkscape:document-rotation="0"
     units="in"
     height="13in" />
  <path
     fill="#78a2d2"
     d="m 68.144578,72.939759 -15.811,-12.252 1.757,5.252 h -42.162 c -4.851,0 -8.784,-3.916 -8.784,-8.75 v -45.5 c 0,-4.8330003 3.933,-8.7500003 8.784,-8.7500003 h 47.432 c 4.852,0 8.784,3.916 8.784,8.7500003 z"
     id="path1061" />
  <path
     d="m 68.144578,73.939759 c -0.218,0 -0.434,-0.071 -0.612,-0.21 l -13.204,-10.231 0.71,2.124 c 0.102,0.305 0.051,0.641 -0.137,0.901 -0.188,0.262 -0.489,0.416 -0.811,0.416 h -42.162 c -5.395,0 -9.784,-4.374 -9.784,-9.75 v -45.5 c 0,-5.3760003 4.389,-9.7500003 9.784,-9.7500003 h 47.433 c 5.394,0 9.783,4.374 9.783,9.7500003 v 61.25 c 0,0.382 -0.217,0.729 -0.56,0.897 -0.14,0.07 -0.29,0.103 -0.44,0.103 z m -15.811,-14.252 c 0.216,0 0.433,0.07 0.612,0.21 l 14.199,11.002 v -59.21 c 0,-4.2730003 -3.492,-7.7500003 -7.784,-7.7500003 h -47.432 c -4.292,0 -7.784,3.477 -7.784,7.7500003 v 45.5 c 0,4.273 3.492,7.75 7.784,7.75 h 40.773 l -1.316,-3.935 c -0.14,-0.418 0.01,-0.878 0.37,-1.133 0.173,-0.122 0.375,-0.184 0.578,-0.184 z"
     id="path1063" />
  <path
     fill="#ffffff"
     d="m 44.433578,50.439759 c -0.158,0 -0.306,-0.074 -0.4,-0.201 l -1.582,-2.118 c -0.096,-0.128 -0.125,-0.293 -0.078,-0.446 0.047,-0.152 0.164,-0.273 0.315,-0.325 1.736,-0.599 3.334,-1.405 4.783,-2.412 -3.271,1.381 -7.182,2.059 -11.827,2.059 -4.645,0 -8.555,-0.678 -11.827,-2.059 1.448,1.007 3.046,1.813 4.783,2.412 0.151,0.052 0.268,0.173 0.315,0.325 0.047,0.153 0.018,0.318 -0.078,0.446 l -1.582,2.118 c -0.094,0.127 -0.243,0.201 -0.4,0.201 -0.001,0 -0.001,0 -0.002,0 -0.322,-0.001 -7.939,-0.103 -13.085,-5.992 -0.086,-0.1 -0.13,-0.229 -0.123,-0.359 0.858,-14.083 5.746,-21.277 5.954,-21.576 0.028,-0.041 0.062,-0.077 0.101,-0.107 0.177,-0.14 4.394,-3.421 10.031,-3.962 0.016,-0.001 0.032,-0.002 0.048,-0.002 0.189,0 0.364,0.107 0.449,0.28 l 0.464,0.947 c 0.068,0.138 0.068,0.299 0.002,0.437 -0.066,0.138 -0.193,0.238 -0.342,0.271 -2.053,0.455 -3.709,1.118 -5.108,1.893 2.815,-1.067 6.022,-1.782 10.432,-1.782 4.442,0 7.665,0.738 10.505,1.833 -1.353,-0.75 -3.003,-1.402 -5.253,-1.945 -0.147,-0.035 -0.271,-0.136 -0.335,-0.273 -0.064,-0.137 -0.063,-0.296 0.004,-0.433 l 0.464,-0.947 c 0.084,-0.172 0.259,-0.28 0.449,-0.28 0.012,0 0.025,0 0.037,0.001 5.386,0.402 9.851,3.815 10.039,3.96 0.04,0.031 0.076,0.068 0.104,0.11 0.208,0.299 5.095,7.493 5.954,21.576 0.008,0.131 -0.036,0.26 -0.123,0.359 -5.146,5.89 -12.763,5.991 -13.085,5.992 -10e-4,-10e-4 -0.002,-10e-4 -0.003,-10e-4 z"
     id="path1065" />
  <path
     d="m 41.509578,18.939759 c 5.298,0.396 9.77,3.858 9.77,3.858 0,0 5.005,7.216 5.865,21.321 -5.057,5.787 -12.711,5.821 -12.711,5.821 l -1.582,-2.118 c 2.7,-0.93 5.779,-2.601 8.428,-5.632 -3.165,2.377 -7.929,4.306 -15.635,4.306 -7.706,0 -12.47,-1.929 -15.635,-4.306 2.649,3.031 5.728,4.702 8.428,5.632 l -1.582,2.118 c 0,0 -7.654,-0.034 -12.711,-5.821 0.86,-14.105 5.865,-21.321 5.865,-21.321 0,0 4.214,-3.324 9.77,-3.858 l 0.464,0.947 c -4.352,0.964 -6.966,2.824 -9.254,4.874 3.939,-2.015 7.874,-3.775 14.686,-3.775 6.812,0 10.684,1.76 14.623,3.775 -2.288,-2.049 -4.472,-3.72 -9.254,-4.874 l 0.465,-0.947 m -11.73,-1 c -0.032,0 -0.064,0.002 -0.096,0.005 -5.782,0.556 -10.112,3.925 -10.293,4.068 -0.078,0.061 -0.146,0.134 -0.202,0.215 -0.211,0.304 -5.175,7.609 -6.042,21.83 -0.016,0.263 0.072,0.521 0.245,0.719 5.293,6.057 13.128,6.162 13.459,6.163 0.001,0 0.003,0 0.005,0 0.315,0 0.612,-0.149 0.801,-0.402 l 1.582,-2.118 c 0.191,-0.256 0.249,-0.588 0.155,-0.893 -0.079,-0.256 -0.257,-0.468 -0.49,-0.591 2.058,0.374 4.301,0.559 6.741,0.559 2.44,0 4.683,-0.185 6.741,-0.559 -0.234,0.123 -0.411,0.335 -0.49,0.591 -0.094,0.305 -0.037,0.637 0.155,0.893 l 1.582,2.118 c 0.189,0.253 0.486,0.402 0.801,0.402 0.002,0 0.003,0 0.005,0 0.331,-0.001 8.166,-0.106 13.459,-6.163 0.173,-0.198 0.261,-0.456 0.245,-0.719 -0.867,-14.221 -5.831,-21.526 -6.042,-21.83 -0.058,-0.084 -0.129,-0.158 -0.21,-0.221 -0.192,-0.149 -4.773,-3.65 -10.307,-4.064 -0.024,-0.002 -0.049,-0.003 -0.074,-0.003 -0.379,0 -0.729,0.215 -0.898,0.56 l -0.464,0.947 c -0.125,0.255 -0.135,0.551 -0.03,0.813 -1.346,-0.177 -2.813,-0.274 -4.442,-0.274 -1.655,0 -3.143,0.099 -4.506,0.278 0.107,-0.263 0.098,-0.56 -0.028,-0.817 l -0.464,-0.947 c -0.169,-0.345 -0.519,-0.56 -0.898,-0.56 z"
     id="path1067" />
  <ellipse
     cx="42.144577"
     cy="35.939758"
     fill="#78a2d2"
     rx="3.5"
     ry="4.5"
     id="ellipse1069" />
  <path
     d="m 42.144578,31.939759 c 1.65,0 3,1.792 3,4 0,2.208 -1.35,4 -3,4 -1.65,0 -3,-1.792 -3,-4 0,-2.208 1.35,-4 3,-4 m 0,-1 c -2.206,0 -4,2.243 -4,5 0,2.757 1.794,5 4,5 2.206,0 4,-2.243 4,-5 0,-2.757 -1.794,-5 -4,-5 z"
     id="path1071" />
  <ellipse
     cx="29.144577"
     cy="35.939758"
     fill="#78a2d2"
     rx="3.5"
     ry="4.5"
     id="ellipse1073" />
  <path
     d="m 29.144578,31.939759 c 1.65,0 3,1.792 3,4 0,2.208 -1.35,4 -3,4 -1.65,0 -3,-1.792 -3,-4 0,-2.208 1.35,-4 3,-4 m 0,-1 c -2.206,0 -4,2.243 -4,5 0,2.757 1.794,5 4,5 2.206,0 4,-2.243 4,-5 0,-2.757 -1.794,-5 -4,-5 z"
     id="path1075" />
  <path
     d="m 63.644578,30.244759 c -0.276,0 -0.5,-0.224 -0.5,-0.5 v -5.49 c 0,-0.276 0.224,-0.5 0.5,-0.5 0.276,0 0.5,0.224 0.5,0.5 v 5.49 c 0,0.276 -0.224,0.5 -0.5,0.5 z"
     id="path1077" />
  <path
     d="m 63.644578,21.691759 c -0.276,0 -0.5,-0.224 -0.5,-0.5 v -4.468 c 0,-0.276 0.224,-0.5 0.5,-0.5 0.276,0 0.5,0.224 0.5,0.5 v 4.468 c 0,0.276 -0.224,0.5 -0.5,0.5 z"
     id="path1079" />
  <g
     id="g1083"
     transform="translate(-13.855422,-15.060241)">
    <path
       d="M 26.658,77 C 23.538,77 21,74.462 21,71.342 V 27.658 C 21,24.538 23.538,22 26.658,22 h 45.685 c 0.276,0 0.5,0.224 0.5,0.5 0,0.276 -0.224,0.5 -0.5,0.5 H 26.658 C 24.089,23 22,25.089 22,27.658 V 71.342 C 22,73.91 24.089,76 26.658,76 c 0.276,0 0.5,0.224 0.5,0.5 0,0.276 -0.224,0.5 -0.5,0.5 z"
       id="path1081" />
  </g>
  <g
     id="g1087"
     transform="translate(-13.855422,-15.060241)">
    <path
       d="m 37.064,77 h -7.181 c -0.276,0 -0.5,-0.224 -0.5,-0.5 0,-0.276 0.224,-0.5 0.5,-0.5 h 7.181 c 0.276,0 0.5,0.224 0.5,0.5 0,0.276 -0.224,0.5 -0.5,0.5 z"
       id="path1085" />
  </g>
  <g
     id="g1091"
     transform="translate(-13.855422,-15.060241)">
    <path
       d="m 60.873,77 h -19.5 c -0.276,0 -0.5,-0.224 -0.5,-0.5 0,-0.276 0.224,-0.5 0.5,-0.5 h 19.5 c 0.276,0 0.5,0.224 0.5,0.5 0,0.276 -0.224,0.5 -0.5,0.5 z"
       id="path1089" />
  </g>
  <g
     id="g1095"
     transform="translate(-13.855422,-15.060241)">
    <path
       d="m 75.599,75.842 c -0.146,0 -0.289,-0.063 -0.388,-0.185 -0.174,-0.214 -0.142,-0.528 0.072,-0.703 C 76.374,74.066 77,72.748 77,71.342 V 48.89 c 0,-0.276 0.224,-0.5 0.5,-0.5 0.276,0 0.5,0.224 0.5,0.5 v 22.452 c 0,1.708 -0.76,3.308 -2.085,4.388 -0.093,0.075 -0.205,0.112 -0.316,0.112 z"
       id="path1093" />
  </g>
</svg>
