<?xml version="1.0" encoding="UTF-8" standalone="no"?>
<svg
   xmlns:dc="http://purl.org/dc/elements/1.1/"
   xmlns:cc="http://creativecommons.org/ns#"
   xmlns:rdf="http://www.w3.org/1999/02/22-rdf-syntax-ns#"
   xmlns:svg="http://www.w3.org/2000/svg"
   xmlns="http://www.w3.org/2000/svg"
   xmlns:sodipodi="http://sodipodi.sourceforge.net/DTD/sodipodi-0.dtd"
   xmlns:inkscape="http://www.inkscape.org/namespaces/inkscape"
   version="1.0"
   width="905.000000pt"
   height="970.000000pt"
   viewBox="0 0 905.000000 970.000000"
   preserveAspectRatio="xMidYMid meet"
   id="svg901"
   sodipodi:docname="discord (1).svg"
   inkscape:version="1.0.2 (e86c870879, 2021-01-15, custom)">
  <defs
     id="defs905" />
  <sodipodi:namedview
     pagecolor="#ffffff"
     bordercolor="#666666"
     borderopacity="1"
     objecttolerance="10"
     gridtolerance="10"
     guidetolerance="10"
     inkscape:pageopacity="0"
     inkscape:pageshadow="2"
     inkscape:window-width="1920"
     inkscape:window-height="1001"
     id="namedview903"
     showgrid="false"
     inkscape:zoom="0.64175258"
     inkscape:cx="603.33333"
     inkscape:cy="643.5502"
     inkscape:window-x="-9"
     inkscape:window-y="-9"
     inkscape:window-maximized="1"
     inkscape:current-layer="svg901" />
  <metadata
     id="metadata877">
Created by potrace 1.16, written by Peter Selinger 2001-2019
<rdf:RDF>
  <cc:Work
     rdf:about="">
    <dc:format>image/svg+xml</dc:format>
    <dc:type
       rdf:resource="http://purl.org/dc/dcmitype/StillImage" />
  </cc:Work>
</rdf:RDF>
</metadata>
  <g
     transform="translate(0.000000,970.000000) scale(0.100000,-0.100000)"
     fill="#000000"
     stroke="none"
     id="g899">
    <path
       d="M1393 9449 c-171 -16 -377 -86 -520 -175 -303 -189 -494 -457 -579 -814 -18 -71 -19 -229 -22 -3110 -2 -2251 0 -3060 9 -3130 33 -274 154 -517 358 -721 155 -155 310 -250 509 -313 190 -59 3 -56 3037 -56 l2782 0 34 23 c23 15 38 37 48 66 13 42 12 48 -32 184 -25 78 -45 142 -44 143 1 1 382 -292 846 -652 610 -473 852 -655 877 -660 48 -9 82 2 120 40 23 23 34 45 39 77 3 24 4 1835 3 4024 l-4 3980 -22 97 c-60 263 -163 451 -346 634 -183 183 -371 286 -634 346 l-97 22 -3140 2 c-1727 1 -3177 -2 -3222 -7z m6449 -286 c187 -53 333 -137 458 -263 126 -125 210 -271 263 -458 l22 -77 3 -3862 c1 -2125 0 -3863 -3 -3863 -3 0 -403 308 -888 684 -485 376 -900 695 -921 710 -57 38 -115 36 -162 -7 -61 -56 -59 -77 36 -363 46 -137 85 -255 88 -262 3 -10 -519 -12 -2679 -10 l-2684 3 -98 27 c-405 112 -689 442 -737 858 -14 120 -13 5917 0 6030 48 389 303 705 671 831 147 50 -9 47 3379 46 l3175 -2 77 -22z"
       id="path879" />
    <path
       d="M1570 8810 c-310 -30 -564 -252 -641 -560 -12 -46 -14 -525 -14 -2960 0 -2752 1 -2908 18 -2970 40 -148 132 -292 241 -381 123 -100 302 -169 437 -169 63 0 91 20 91 65 0 44 -26 62 -103 69 -259 26 -471 201 -533 442 -14 56 -16 346 -16 2946 0 3181 -5 2929 62 3066 39 78 138 186 212 231 31 18 87 45 124 60 l67 26 3003 5 c2959 5 3004 5 3018 24 20 28 17 70 -7 92 -21 19 -85 19 -2953 20 -1612 1 -2965 -2 -3006 -6z"
       id="path881" />
    <path
       d="M8106 7609 l-26 -20 0 -313 0 -313 23 -21 c29 -27 61 -28 87 -2 19 19 20 33 20 334 l0 315 -26 20 c-15 12 -32 21 -39 21 -7 0 -24 -9 -39 -21z"
       id="path883" />
    <path
       d="M3675 7390 c-374 -58 -760 -212 -1099 -439 -113 -75 -135 -101 -230 -276 -257 -473 -462 -1114 -576 -1805 -51 -311 -98 -778 -85 -847 5 -26 29 -58 93 -126 358 -373 846 -614 1412 -697 154 -23 267 -26 306 -8 24 11 202 236 254 320 26 42 25 94 -1 137 l-20 34 38 -6 c469 -74 1109 -76 1560 -4 l82 13 -24 -28 c-32 -38 -39 -79 -21 -121 18 -45 215 -307 252 -336 33 -26 119 -28 291 -6 541 71 1040 306 1397 658 137 136 139 140 138 238 -4 178 -57 616 -112 924 -123 680 -361 1360 -623 1782 -49 78 -57 86 -172 162 -367 242 -764 395 -1142 440 -140 17 -162 4 -230 -134 -34 -70 -43 -98 -39 -123 l5 -34 -37 6 c-225 36 -829 35 -1054 0 l-38 -6 0 41 c0 51 -77 210 -113 234 -39 25 -85 27 -212 7z m168 -175 c31 -64 31 -65 13 -65 -26 0 -260 -70 -356 -107 -203 -77 -384 -176 -560 -306 -99 -73 -240 -190 -236 -195 2 -1 81 36 177 83 460 226 853 336 1345 376 211 17 685 6 876 -19 427 -59 756 -163 1212 -388 l111 -55 -50 46 c-237 218 -525 384 -842 488 -92 30 -192 60 -220 67 -29 7 -53 16 -53 21 0 5 12 33 26 61 l26 51 76 -7 c305 -26 735 -191 1066 -409 105 -70 113 -78 157 -153 273 -464 496 -1138 613 -1849 43 -264 86 -640 86 -761 l0 -50 -97 -95 c-205 -198 -399 -328 -655 -438 -255 -109 -629 -200 -829 -201 l-45 0 -92 125 c-51 69 -93 130 -95 136 -1 5 39 26 88 45 125 49 313 142 420 209 176 110 409 302 502 412 l41 50 -92 -62 c-497 -333 -1170 -491 -2006 -472 -505 12 -852 68 -1226 198 -155 53 -413 180 -538 263 -55 36 -101 64 -103 62 -8 -8 252 -248 340 -315 188 -141 411 -265 619 -345 l97 -38 -98 -131 c-112 -152 -101 -147 -261 -127 -437 53 -863 219 -1171 456 -103 80 -212 178 -260 235 l-40 48 16 183 c61 706 206 1355 429 1923 56 140 229 498 278 570 89 133 555 376 903 470 124 34 275 63 335 64 46 1 46 1 73 -54z"
       id="path885" />
    <path
       d="M3620 5724 c-71 -19 -132 -56 -197 -117 -140 -132 -212 -329 -200 -547 11 -195 66 -329 187 -451 86 -86 154 -125 254 -142 238 -40 474 144 553 433 25 90 24 309 -1 400 -28 104 -82 204 -151 278 -130 139 -283 189 -445 146z m236 -145 c231 -111 326 -484 192 -756 -43 -88 -115 -165 -186 -200 -76 -37 -183 -40 -253 -5 -104 51 -180 145 -225 278 -99 296 38 642 281 705 46 12 144 1 191 -22z"
       id="path887" />
    <path
       d="M5290 5726 c-212 -59 -367 -266 -401 -538 -20 -154 16 -336 93 -466 53 -91 144 -176 235 -220 74 -35 83 -37 178 -37 88 0 107 3 160 28 163 77 274 217 327 415 28 107 28 278 -1 385 -82 311 -343 502 -591 433z m234 -150 c67 -33 145 -114 184 -193 45 -87 63 -171 63 -283 0 -163 -47 -295 -143 -397 -103 -108 -237 -139 -359 -81 -215 100 -316 433 -214 705 87 231 288 338 469 249z"
       id="path889" />
    <path
       d="M8100 6640 c-19 -19 -20 -33 -20 -393 0 -416 0 -417 64 -417 67 0 66 -6 66 417 0 355 -1 381 -18 396 -25 23 -68 21 -92 -3z"
       id="path891" />
    <path
       d="M8106 5419 l-26 -20 0 -1483 c0 -1433 -1 -1485 -19 -1558 -28 -110 -72 -189 -151 -272 -75 -79 -88 -116 -52 -149 39 -36 72 -23 154 63 61 62 87 100 123 173 80 164 75 51 75 1727 0 822 -4 1500 -8 1506 -8 13 -46 34 -60 34 -5 0 -21 -9 -36 -21z"
       id="path893" />
    <path
       d="M2005 1880 c-23 -25 -22 -65 0 -90 18 -20 31 -20 508 -18 l490 3 19 26 c21 28 18 57 -8 84 -13 13 -82 15 -503 15 -472 0 -488 -1 -506 -20z"
       id="path895" />
    <path
       d="M3477 1882 c-22 -25 -21 -75 1 -95 17 -16 121 -17 1294 -17 1255 0 1275 0 1293 20 22 25 22 65 0 90 -18 20 -38 20 -1295 20 -1224 0 -1278 -1 -1293 -18z"
       id="path897" />
  </g>
  <path
     style="fill:#78a2d2;stroke:none;stroke-width:1.55823;fill-opacity:1"
     d="m 1137.8681,1201.5973 c -2.9661,-2.2524 -48.5444,-37.424 -101.2851,-78.1591 -127.11795,-98.1815 -135.01794,-104.1416 -139.54255,-105.2772 -5.40331,-1.3561 -10.60955,0.2348 -16.22156,4.957 -7.40719,6.2327 -6.62433,12.8836 5.99066,50.894 l 10.73086,32.3334 -358.63365,-0.065 -358.63367,-0.065 -14.96839,-5.0847 c -37.51625,-12.7441 -64.72505,-36.81 -80.704816,-71.3827 -3.305078,-7.1506 -7.322251,-18.2601 -8.927049,-24.6879 C 72.85847,993.78784 72.75502,978.92656 72.75502,585.89558 V 178.41767 l 4.376921,-14.0241 c 13.560528,-43.44929 44.151709,-75.015557 86.952439,-89.72402 9.27664,-3.187916 14.26079,-3.519431 73.06421,-4.859773 34.70964,-0.791158 228.94338,-1.166306 431.63053,-0.833662 l 368.52208,0.604807 10.9076,3.529631 c 46.8055,15.145926 78.7104,47.746037 92.5585,94.575337 l 3.2775,11.08348 -0.3919,513.46162 -0.3919,513.46161 z M 224.33601,1055.6145 c 4.69491,-3.2885 4.67158,-10.7668 -0.0428,-13.731 -1.92831,-1.2124 -7.01205,-2.6679 -11.29719,-3.2345 -28.51189,-3.7697 -53.63101,-21.3558 -65.08786,-45.56828 -4.8814,-10.31622 -5.0512,-11.38205 -6.03508,-37.88393 -1.42162,-38.29274 -1.36645,-686.70755 0.062,-728.74397 l 1.1741,-34.55119 5.15324,-10.46772 c 7.43625,-15.10518 22.36036,-29.71849 38.24363,-37.44723 l 12.46587,-6.06583 399.68674,-1.04495 c 275.44723,-0.72013 401.01876,-1.55846 403.97184,-2.69695 3.5114,-1.3537 4.2852,-2.60936 4.2852,-6.9536 0,-3.0304 -1.1039,-6.21775 -2.5768,-7.44017 -2.1691,-1.80034 -65.5719,-2.13859 -400.85535,-2.13859 -439.92206,0 -404.76367,-0.85839 -428.54402,10.46286 -24.83967,11.82557 -47.00097,39.83312 -51.58052,65.18771 -1.02363,5.6673 -1.42026,143.38333 -1.15113,399.68675 l 0.41062,391.04019 3.52248,8.70458 c 5.52209,13.64592 14.35219,27.11272 24.52572,37.40412 19.23801,19.4609 61.42962,34.0547 73.66934,25.4817 z m 178.84865,-1.3798 c 1.3714,-2.0931 2.26408,-5.4062 1.98372,-7.3626 -1.02309,-7.1394 -4.24488,-7.4847 -69.85111,-7.4865 -33.85261,-9e-4 -63.1817,0.4352 -65.17577,0.9692 -6.99656,1.8735 -7.58032,14.8235 -0.74806,16.5942 1.54847,0.4013 31.72394,0.811 67.05659,0.9104 l 64.24117,0.1808 z m 406.7405,0 c 2.80475,-3.8363 2.80475,-7.2548 -4e-5,-11.0911 -2.16099,-2.9557 -5.95406,-3.0355 -166.34137,-3.4968 -90.27145,-0.2597 -167.84962,-0.029 -172.39591,0.5123 -6.85164,0.816 -8.51139,1.63 -9.70039,4.7573 -2.4489,6.4411 0.51456,11.266 7.37224,12.0028 3.25569,0.3498 80.82973,0.5694 172.38676,0.4881 162.89702,-0.1446 166.51475,-0.2127 168.67871,-3.1726 z m 258.65634,-26.8754 c 7.318,-7.5004 12.1393,-14.3915 17.1972,-24.58 l 7.0282,-14.1577 1.4179,-28.01039 c 1.6356,-32.31062 2.011,-308.27002 0.486,-357.23787 l -1.0242,-32.8866 -4.2865,-1.77549 c -3.4814,-1.44206 -5.0182,-1.29607 -8.1825,0.77727 l -3.896,2.55279 -0.6457,200.53679 c -0.6436,199.89615 -0.6564,200.56914 -3.9824,210.6653 -3.8934,11.81823 -9.4924,21.1058 -19.5514,32.4318 -8.6294,9.7162 -10.3292,14.7493 -6.4347,19.0527 5.2928,5.8484 10.7827,3.999 21.8741,-7.3686 z M 473.14327,861.45991 c 9.93339,-11.0483 25.65937,-32.10363 28.62899,-38.331 2.01268,-4.22063 2.13896,-6.32692 0.70206,-11.71029 -0.96362,-3.61021 -1.54966,-6.76638 -1.30232,-7.01373 0.24735,-0.24734 9.13544,0.62979 19.75132,1.94919 49.73371,6.18118 128.74421,6.18279 175.12487,0.003 22.63198,-3.01523 21.01312,-3.31076 18.70128,3.41395 -3.21788,9.36018 -0.50258,14.92618 20.55153,42.12795 13.23106,17.09445 14.07402,17.59438 29.66642,17.59438 59.20591,0 139.25591,-30.25933 189.74744,-71.72554 15.90911,-13.06538 36.2395,-34.51913 37.51048,-39.58315 2.46028,-9.80254 -3.84833,-71.94588 -12.66564,-124.7636 -14.74456,-88.32328 -46.87679,-183.47303 -81.82493,-242.29949 -10.70911,-18.02609 -23.96634,-27.80576 -67.67855,-49.92553 -39.59899,-20.03836 -81.92788,-32.99552 -115.26758,-35.28419 -11.18632,-0.76792 -12.95125,-0.50548 -16.70822,2.48443 -5.47779,4.35987 -15.27721,24.03252 -15.27721,30.66998 v 5.18583 l -10.51807,-1.11005 c -13.97807,-1.4752 -111.89191,-1.42639 -126.14547,0.063 l -11.22577,1.17293 -1.09505,-5.84763 c -2.46396,-13.15776 -11.53468,-28.98541 -18.19158,-31.74279 -9.43511,-3.90815 -45.52072,2.44285 -81.36221,14.31963 -40.33098,13.36443 -96.10397,43.70647 -108.03971,58.77654 -7.57795,9.56796 -24.21157,41.11473 -35.08972,66.55001 -35.20484,82.31593 -58.42836,182.33833 -66.48722,286.35681 l -1.78312,23.01543 3.88762,6.63372 c 7.78985,13.29239 41.09984,42.12736 67.78317,58.67689 45.02474,27.92523 109.28165,47.74642 156.33558,48.2245 l 15.04837,0.15286 7.22324,-8.03398 z M 1091.9311,515.12223 c 2.8903,-2.11285 3.0247,-4.53888 3.0247,-54.59412 0,-57.04911 0.2777,-55.31152 -8.8485,-55.36369 -9.0335,-0.0516 -9.0712,0.17667 -9.0712,55.05799 0,42.899 0.3522,50.68733 2.4257,53.64774 2.7706,3.95548 8.0464,4.48523 12.4693,1.25208 z m 0.8861,-146.83637 c 1.6684,-2.0077 2.2453,-11.85494 2.6237,-44.78538 0.4796,-41.73098 0.4466,-42.24302 -2.8995,-44.95254 -4.2464,-3.43853 -8.9682,-3.49893 -12.6557,-0.16185 -2.6267,2.37711 -2.8496,5.87192 -2.8496,44.6765 0,36.98559 0.3132,42.44368 2.5789,44.94724 3.2117,3.54891 10.3584,3.69833 13.2022,0.27603 z"
     id="path1470"
     transform="scale(0.75)" />
  <path
     style="fill:#d5d5ff;stroke:none;stroke-width:1.55823"
     d="M 422.27574,847.60827 C 376.76842,839.59248 331.98685,822.6618 298.6988,800.88722 280.49624,788.98047 257.47794,769.64091 247.15561,757.58159 l -5.27017,-6.15701 2.32792,-24.72032 c 9.25927,-98.32439 30.48064,-191.36592 59.2471,-259.75888 9.44789,-22.46258 32.59687,-68.42169 37.22193,-73.89898 11.25946,-13.33419 61.73304,-40.77664 97.71467,-53.12739 25.94003,-8.90395 56.2032,-15.32132 67.90461,-14.39931 1.56551,0.12336 8.21239,10.77506 8.21239,13.16047 0,0.36728 -2.62952,1.15613 -5.84338,1.75301 -3.21385,0.59688 -16.27085,4.51735 -29.01554,8.71216 -37.74743,12.42426 -68.98671,29.5587 -102.34931,56.13759 -14.69362,11.70593 -18.0498,14.96641 -16.74684,16.26937 0.34213,0.34213 9.35271,-3.62154 20.0235,-8.80817 55.20975,-26.83514 95.42839,-39.85674 149.5139,-48.40815 20.46626,-3.2359 27.80457,-3.57094 77.91164,-3.55712 58.97047,0.0163 66.54778,0.62508 105.95984,8.51358 38.31888,7.6697 83.60063,23.82705 125.08745,44.63346 9.37218,4.70033 17.3491,8.23729 17.72647,7.85991 1.19242,-1.19243 -19.94382,-19.48533 -34.07159,-29.48812 -29.67221,-21.00863 -58.08245,-34.64254 -97.05558,-46.57645 -11.9984,-3.674 -22.12281,-6.89895 -22.49872,-7.16654 -0.37589,-0.26759 0.82742,-3.59635 2.67404,-7.39724 l 3.35748,-6.9107 8.2336,0.8724 c 43.10528,4.56729 97.9918,25.69418 141.8706,54.60876 14.0114,9.23301 15.76748,10.9687 22.26191,22.00332 10.54887,17.92349 24.23518,46.6944 33.86625,71.19245 29.12881,74.09362 48.04978,157.94187 56.76166,251.5392 l 2.67244,28.7119 -13.9651,13.07932 c -40.31962,37.76228 -82.87152,60.78854 -139.22733,75.34059 -21.52071,5.55702 -43.14216,9.18577 -54.78261,9.19422 l -8.63925,0.006 -9.44719,-12.85542 c -5.19594,-7.07048 -10.62304,-14.69696 -12.06021,-16.94773 l -2.61302,-4.0923 15.24565,-6.64625 c 42.23119,-18.41043 67.46447,-34.29132 100.94843,-63.53321 11.72021,-10.23538 23.58909,-23.2249 22.35178,-24.4622 -0.30549,-0.30549 -7.21262,3.65104 -15.34919,8.7923 -59.19049,37.40078 -129.78101,57.11857 -215.8058,60.28023 -31.62479,1.1623 -86.04402,-0.23603 -108.29719,-2.78274 -66.52458,-7.61326 -122.17543,-25.84911 -171.6307,-56.24046 -25.26726,-15.5273 -23.67669,-12.01074 7.23713,16.00037 19.83099,17.96893 33.80904,28.1188 57.33208,41.6305 13.78277,7.91685 40.81376,20.56174 54.64662,25.56325 2.00653,0.72549 2.44921,1.64494 1.43415,2.97876 -0.80754,1.06114 -4.8543,6.48719 -8.99283,12.05787 -14.02021,18.87203 -15.80653,20.27425 -25.64538,20.13119 -4.75979,-0.0692 -16.15297,-1.4467 -25.31818,-3.06107 z m 88.40491,-150.38006 c 23.88157,-6.21872 43.26868,-26.70763 51.52869,-54.45713 4.2919,-14.4187 3.82987,-47.98235 -0.84729,-61.5502 -4.93673,-14.32078 -12.71487,-26.40687 -23.30323,-36.20984 -15.19918,-14.07175 -31.67888,-19.63076 -49.56546,-16.71965 -13.6201,2.21672 -23.86228,8.06801 -35.24687,20.13628 -17.83728,18.90845 -25.63655,41.96941 -23.96541,70.86112 1.56902,27.12602 9.85978,45.78371 27.84175,62.6556 16.83002,15.79107 33.42425,20.52657 53.55782,15.28382 z m 232.60218,-3.39667 c 12.43861,-5.97498 28.13304,-21.91837 34.26917,-34.81275 7.19636,-15.12233 9.65282,-26.4586 9.65282,-44.54659 0,-20.31697 -1.90326,-29.34307 -9.57609,-45.41393 -21.72948,-45.51278 -71.05461,-55.2225 -103.34611,-20.34384 -15.66966,16.92511 -23.26042,38.24567 -23.22362,65.22935 0.0388,28.42215 8.65287,50.27298 26.34219,66.82047 14.74953,13.79746 22.96597,17.19737 41.72903,17.2672 13.52192,0.0503 16.31604,-0.43554 24.15261,-4.19991 z"
     id="path1472"
     transform="scale(0.75)" />
  <path
     style="fill:#78a2d2;stroke:none;stroke-width:1.55823;fill-opacity:1"
     d="m 1066.9076,1145.8724 c -87.43173,-67.7951 -153.49252,-118.4197 -162.02835,-124.1678 -7.52464,-5.0671 -14.8604,-5.3776 -22.05135,-0.9333 -9.75087,6.0263 -9.16071,15.7005 3.29978,54.0907 4.81106,14.8227 9.15178,28.0042 9.64604,29.2922 0.79868,2.0814 -39.11626,2.2228 -358.85922,1.2714 l -359.75787,-1.0705 -10.90763,-3.8506 c -25.94413,-9.1587 -48.29558,-24.3803 -63.48344,-43.2327 -8.738845,-10.8474 -19.628833,-31.3907 -24.786262,-46.7577 L 74.318527,999.60643 73.876318,589.16754 73.434108,178.72866 77.60017,166.1073 c 14.251937,-43.17717 40.91193,-72.305193 80.78989,-88.268988 12.18793,-4.879023 13.02,-4.987204 49.08434,-6.381682 20.3102,-0.785322 214.75104,-1.226247 435.59387,-0.987778 l 398.90763,0.430746 12.4989,5.064503 c 43.9099,17.792183 71.1791,47.185669 85.6527,92.325059 4.1874,13.05942 4.2339,13.65975 3.3153,42.8514 -0.5123,16.28354 -0.9381,246.10342 -0.9462,510.71085 -0.01,264.60743 -0.5406,481.03799 -1.1833,480.95689 -0.6428,-0.081 -34.1253,-25.7023 -74.4057,-56.9359 z m -840.46254,-91.2256 c 2.21118,-3.4874 1.49584,-10.0233 -1.37277,-12.5425 -1.4998,-1.3172 -8.33655,-3.5152 -15.19277,-4.8846 -18.04851,-3.6046 -33.6996,-11.8358 -46.08621,-24.2375 -14.12105,-14.13823 -18.67517,-24.17149 -20.44554,-45.04394 -0.75041,-8.84722 -1.16365,-186.60264 -0.91832,-395.01205 L 142.8755,194 l 6.22668,-11.68675 c 8.35862,-15.68817 21.50615,-28.64893 37.40384,-36.87254 l 12.46587,-6.44837 401.63101,-1.51931 c 323.55799,-1.22398 402.101,-1.90941 404.049,-3.52609 1.6361,-1.35782 2.2671,-4.06598 1.9514,-8.37445 l -0.4668,-6.36767 -25.7108,-1.18715 c -40.94565,-1.89059 -771.67178,-0.28041 -784.24155,1.72811 -14.82948,2.36958 -30.41974,10.95209 -44.73837,24.62868 -13.10618,12.51849 -20.89226,24.30031 -26.04231,39.40694 L 121.91981,194 l -0.0402,395.56156 -0.0402,395.56156 6.00364,12.69547 c 11.14896,23.57591 23.69218,37.36131 43.85981,48.20331 22.27136,11.9729 49.86318,16.3202 54.74225,8.6249 z m 177.37964,0.3793 c 0.88718,-1.6577 1.61305,-5.0951 1.61305,-7.6387 0,-7.6888 -3.25791,-8.046 -73.38111,-8.046 h -63.56667 l -2.42571,3.4632 c -3.105,4.433 -3.09561,9.6684 0.0229,12.7869 2.14993,2.1499 10.60247,2.4487 69.28653,2.4487 64.48588,0 66.89466,-0.1062 68.45096,-3.0141 z m 405.73565,0.096 c 3.31776,-2.7542 3.31773,-10.1092 -5e-5,-12.8634 -2.1416,-1.7778 -31.22424,-2.2121 -172.38727,-2.5746 -187.36397,-0.4811 -177.19713,-0.9949 -177.19713,8.9539 0,10.083 -10.74312,9.5334 177.01015,9.0555 141.32528,-0.3598 170.43263,-0.7935 172.5743,-2.5713 z m 261.15045,-29.3012 c 5.343,-5.8309 12.4196,-16.1357 16.7486,-24.3889 l 7.4964,-14.29174 V 778.85707 c 0,-114.55593 -0.439,-208.72267 -0.9756,-209.25942 -2.2138,-2.21448 -11.6029,-2.38003 -14.3034,-0.2522 -2.6749,2.1077 -2.8724,12.15651 -4.0211,204.55203 l -1.208,202.33545 -3.484,8.93731 c -3.4569,8.86762 -10.8717,20.58556 -21.358,33.75276 -6.5165,8.1825 -6.8329,15.3019 -0.8128,18.2862 5.8009,2.8756 11.6169,-0.1462 21.9179,-11.388 z M 475.06588,860.53414 c 11.92698,-13.76015 26.88488,-34.51902 27.96029,-38.80384 0.53094,-2.11544 0.58219,-6.70295 0.11391,-10.19449 l -0.85148,-6.34822 9.40074,0.98257 c 5.17042,0.54041 17.56272,1.82864 27.53845,2.86273 23.88225,2.47561 118.91126,2.41774 140.45899,-0.0855 8.99879,-1.04543 20.74281,-2.3261 26.09781,-2.84594 l 9.73636,-0.94515 -1.73636,4.98091 c -1.40598,4.0332 -1.21483,6.34651 1.00466,12.15814 4.01432,10.51134 29.0714,43.17728 35.00548,45.63525 6.91371,2.86376 43.36935,1.07325 63.12096,-3.10015 65.75966,-13.89465 135.73535,-52.4418 171.29957,-94.36291 l 8.67631,-10.22716 v -13.97975 c 0,-15.46339 -3.12621,-47.87266 -7.95347,-82.45335 -12.65963,-90.68877 -37.22521,-174.46936 -71.59451,-244.17217 -21.47507,-43.55261 -28.37228,-50.6204 -71.60062,-73.37141 -45.60659,-24.00269 -90.81665,-38.54337 -125.70033,-40.42838 -15.78951,-0.85323 -15.8589,-0.84111 -19.85028,3.46566 -5.66974,6.11775 -13.38913,22.21225 -13.38924,27.91582 l -1.1e-4,4.81538 h -73.85527 -73.85527 l -1.74767,-7.79117 c -2.18154,-9.72533 -9.80513,-23.27192 -15.01945,-26.68847 -8.31883,-5.4507 -44.40976,-0.0919 -81.72294,12.13428 -38.55378,12.63269 -91.69045,40.51795 -107.64956,56.49276 -6.27943,6.28561 -21.30846,31.98109 -31.06564,53.11364 -38.86519,84.17595 -64.01748,187.12019 -73.84167,302.22193 l -2.12156,24.85646 3.95143,6.3082 c 7.7931,12.44118 35.1117,36.79859 60.44603,53.89402 25.96276,17.5195 61.17253,33.1113 96.55857,42.75866 26.17114,7.13507 43.99147,9.82398 66.34413,10.01061 l 18.07557,0.15099 7.76617,-8.95984 z M 1093.7286,512.65863 c 1.4564,-2.89409 1.9189,-15.91348 1.799,-50.64257 -0.089,-25.71084 -0.6075,-48.8506 -1.1527,-51.42168 -0.8732,-4.11777 -1.7257,-4.73465 -7.1551,-5.17784 -10.2783,-0.839 -10.1837,-1.35962 -10.1837,56.00693 0,45.01643 0.2978,51.31027 2.5328,53.54535 3.7874,3.78737 11.7446,2.48911 14.1597,-2.31019 z m 0.6458,-147.25301 c 0.5455,-2.57108 1.0748,-22.68064 1.1762,-44.68789 0.2051,-44.51527 0.1171,-44.9105 -10.0006,-44.9105 -3.633,0 -5.7925,0.94318 -6.9008,3.01403 -2.2175,4.14348 -2.1764,84.95749 0.045,89.10886 1.3243,2.47445 2.9709,3.00318 8.1733,2.62447 5.83,-0.42442 6.6191,-0.96569 7.5066,-5.14897 z"
     id="path1474"
     transform="scale(0.75)" />
  <path
     style="fill:#78a2d2;stroke:none;stroke-width:1.55823;fill-opacity:1"
     d="m 482.26676,677.10261 c -6.81952,-2.96571 -18.60231,-14.10159 -23.1728,-21.90055 -10.76422,-18.36775 -13.92308,-40.67651 -8.68994,-61.37077 5.3715,-21.24137 15.76207,-35.80075 30.80094,-43.15858 7.3332,-3.5878 9.84301,-4.04198 18.49738,-3.34729 21.33243,1.71236 37.42007,18.22 44.4166,45.57618 3.6599,14.31007 3.88461,24.18222 0.87376,38.38698 -4.11964,19.4359 -17.05883,38.11093 -31.12268,44.91912 -7.80045,3.77613 -23.92792,4.23281 -31.60326,0.89491 z"
     id="path1476"
     transform="scale(0.75)" />
  <path
     style="fill:#78a2d2;stroke:none;stroke-width:1.55823;fill-opacity:1"
     d="m 701.90872,675.40481 c -43.00427,-21.42994 -42.1493,-104.00985 1.29457,-125.04067 31.02764,-15.02022 65.37896,18.27186 65.2797,63.26677 -0.0466,21.14487 -6.91562,39.38174 -19.72835,52.37806 -13.74957,13.94658 -30.83648,17.37368 -46.84592,9.39584 z"
     id="path1478"
     transform="scale(0.75)" />
</svg>
