<svg width="71" height="65" viewBox="0 0 71 65" fill="none" xmlns="http://www.w3.org/2000/svg">
<path d="M16.0323 64.8602H24.4874L11.1463 57.0323L0.179993 51.1659C0.658965 58.791 7.58549 64.8602 16.0323 64.8602Z" fill="#FDE494"/>
<path d="M46.5699 60.3872L37.0212 58.1506H16.0323C11.3176 58.1506 7.48176 54.639 7.48176 50.3227V46.0313L3.81722 42.431L0.152679 43.0243V50.3227C0.152679 50.6059 0.162664 50.8869 0.179998 51.166L24.4874 64.8603H53.3752L46.5699 60.3872Z" fill="#FEA150"/>
<path d="M61.2661 55.757C59.7102 57.2312 57.531 58.1506 55.1204 58.1506H37.0212L53.3752 64.8604H55.1204C60.8216 64.8604 65.8299 62.0949 68.6312 57.9528L64.8921 55.9141L61.2661 55.757Z" fill="#FF5D4A"/>
<path d="M63.6709 41.2995V50.3226C63.6709 52.432 62.753 54.3479 61.2661 55.7571L68.6314 57.9528C70.1322 55.7335 71 53.1192 71 50.3226V42.3664L67.2091 40.4167L63.6709 41.2995Z" fill="#E45261"/>
<path d="M71 18.8994L67.0975 18.0487L63.6709 19.9268V41.2995L71 42.3664V18.8994Z" fill="#FF4D95"/>
<path d="M71 14.5377C71 7.23671 65.0904 1.17635 57.4206 0.153107L47.8128 3.81329L42.9443 6.70973H55.1204C59.8351 6.70973 63.6709 10.2214 63.6709 14.5377V19.9268L71 18.8994V14.5377Z" fill="#CB319C"/>
<path d="M44.1185 0L35.0299 3.12089L27.8615 6.70973H42.9446L57.4205 0.153105C56.6694 0.0528125 55.9015 0 55.1204 0H44.1185Z" fill="#8A3293"/>
<path d="M35.5764 51.4409C38.1167 51.4409 40.5514 51.0203 42.8031 50.2526L30.9002 45.3061L18.2836 42.9427C22.0083 48.0612 28.3688 51.4409 35.5764 51.4409Z" fill="#FF5D4A"/>
<path d="M45.6988 38.6829C43.501 41.6553 39.7836 43.613 35.5763 43.613C30.0036 43.613 25.2939 40.1776 23.8328 35.4995L20.5559 33.6245L14.9036 34.1995C15.2292 37.4103 16.4276 40.3925 18.2833 42.9426L42.8029 50.2527C48.1031 48.4457 52.3834 44.7096 54.628 39.983L50.2342 37.9454L45.6988 38.6829Z" fill="#E45261"/>
<path d="M23.3614 32.43C23.3614 29.6585 24.4707 27.1212 26.3013 25.1654L21.0905 24.498L15.7976 26.6378C15.1577 28.4648 14.8109 30.4109 14.8109 32.4299C14.8109 33.0269 14.8445 33.6163 14.9036 34.1991L23.8329 35.4991C23.528 34.5234 23.3614 33.4945 23.3614 32.43Z" fill="#FF4D95"/>
<path d="M56.342 32.4301C56.342 28.3588 54.9361 24.5827 52.5467 21.4862L47.3718 20.8138L42.0558 22.9569C45.4975 24.9372 47.7915 28.4419 47.7915 32.4302C47.7915 34.7447 47.0193 36.897 45.6989 38.6829L54.6283 39.9829C55.7283 37.6664 56.342 35.1131 56.342 32.4301Z" fill="#FF4D95"/>
<path d="M35.5764 21.2472C37.9556 21.2472 40.1763 21.8754 42.0559 22.9568L52.5467 21.4862C48.7835 16.6099 42.5796 13.4193 35.5764 13.4193C26.3316 13.4193 18.4798 18.9791 15.7976 26.6378L26.3013 25.1653C28.5432 22.7697 31.8683 21.2472 35.5764 21.2472Z" fill="#CB319C"/>
<path d="M55.1204 19.0107C57.8145 19.0107 60.0064 17.0041 60.0064 14.5376C60.0064 12.0712 57.8145 10.0646 55.1204 10.0646C52.4263 10.0646 50.2344 12.0712 50.2344 14.5376C50.2344 17.0041 52.4263 19.0107 55.1204 19.0107Z" fill="#CB319C"/>
<path d="M7.48176 39.7222L3.95381 38.1113L0.152679 37.5372V43.0243L7.48176 46.0312V39.7222Z" fill="#FF5D4A"/>
<path d="M0.152679 32.0518V37.5372L7.48176 39.7222V33.1188L3.6737 31.8655L0.152679 32.0518Z" fill="#E45261"/>
<path d="M7.48176 27.8036L3.71571 27.7725L0.152679 28.8311V32.0519L7.48176 33.1188V27.8036Z" fill="#FF4D95"/>
<path d="M7.48176 22.7717L3.59978 23.1321L0.152679 26.0913V28.831L7.48176 27.8036V22.7717Z" fill="#CB319C"/>
<path d="M0.152679 26.0913L7.48176 22.7717V15.1209L3.18308 15.4972L0.152679 18.1458V26.0913Z" fill="#8A3293"/>
<path d="M28.5275 0L11.8046 5.88821L0.344601 12.2789C0.218687 13.0152 0.152679 13.7696 0.152679 14.5377V18.1458L7.48177 15.121V14.5377C7.48177 10.2214 11.3176 6.70973 16.0323 6.70973H27.8615L44.1185 0H28.5275Z" fill="#523494"/>
<path d="M16.0323 0C8.11536 0 1.53344 5.33165 0.344604 12.2789L28.5274 0H16.0323Z" fill="#2D2D87"/>
<path d="M35.5764 12.7205C23.7052 12.7205 14.0473 21.5621 14.0473 32.4302C14.0473 35.8951 15.0434 39.3032 16.9282 42.2858C17.2449 42.7869 17.9455 42.958 18.493 42.6684C19.0403 42.3785 19.2275 41.7372 18.9109 41.2359C17.2276 38.5719 16.3377 35.527 16.3377 32.4302C16.3377 22.7184 24.9681 14.8173 35.5764 14.8173C46.1846 14.8173 54.8152 22.7184 54.8152 32.4302C54.8152 42.142 46.1846 50.043 35.5764 50.043C30.2388 50.043 25.2771 48.0883 21.6055 44.539C21.1706 44.1186 20.4458 44.1005 19.9865 44.4987C19.5273 44.8969 19.5075 45.5604 19.9425 45.9809C24.0512 49.9525 29.6034 52.1398 35.5764 52.1398C47.4475 52.1398 57.1055 43.2981 57.1055 32.4301C57.1055 21.562 47.4475 12.7205 35.5764 12.7205Z" fill="black"/>
<path d="M35.5764 45.1505C43.238 45.1505 49.4711 39.4442 49.4711 32.43C49.4711 25.4159 43.2379 19.7097 35.5764 19.7097C27.9149 19.7097 21.6818 25.416 21.6818 32.43C21.6818 39.4441 27.9148 45.1505 35.5764 45.1505ZM35.5764 21.8065C41.9751 21.8065 47.1807 26.5722 47.1807 32.4302C47.1807 38.2882 41.9751 43.0539 35.5764 43.0539C29.1777 43.0539 23.9721 38.2882 23.9721 32.4302C23.9721 26.5722 29.1777 21.8065 35.5764 21.8065Z" fill="black"/>
<path d="M55.1204 9.92468C52.3421 9.92468 50.0818 11.994 50.0818 14.5375C50.0818 17.081 52.3421 19.1504 55.1204 19.1504C57.8987 19.1504 60.1591 17.081 60.1591 14.5375C60.1591 11.994 57.8987 9.92468 55.1204 9.92468ZM55.1204 17.0537C53.605 17.0537 52.3721 15.925 52.3721 14.5377C52.3721 13.1503 53.605 12.0216 55.1204 12.0216C56.6358 12.0216 57.8688 13.1503 57.8688 14.5377C57.8688 15.925 56.6358 17.0537 55.1204 17.0537Z" fill="black"/>
<path d="M71 14.4677C71 6.47753 63.9245 0 55.1968 0H15.8032C7.07545 0 0 6.47753 0 14.4677V50.5322C0 58.5225 7.07545 65 15.8032 65H55.1967C63.9245 65 71 58.5225 71 50.5323V14.4677ZM68.7097 50.5323C68.7097 57.3645 62.6597 62.9032 55.1968 62.9032H15.8032C8.34028 62.9032 2.2903 57.3645 2.2903 50.5323V14.4677C2.2903 7.63547 8.34028 2.09676 15.8032 2.09676H55.1967C62.6596 2.09676 68.7096 7.63547 68.7096 14.4677V50.5323H68.7097Z" fill="black"/>
<path d="M65.6559 14.8872C65.6559 9.36736 60.768 4.89252 54.7387 4.89252H16.2614C10.2321 4.89252 5.34415 9.36736 5.34415 14.8872V50.113C5.34415 55.6328 10.2321 60.1076 16.2614 60.1076H54.7388C60.7681 60.1076 65.656 55.6328 65.656 50.113V14.8872H65.6559ZM63.3656 50.113C63.3656 54.4748 59.5031 58.0108 54.7387 58.0108H16.2614C11.4969 58.0108 7.63445 54.4748 7.63445 50.113V14.8872C7.63445 10.5253 11.4969 6.98928 16.2614 6.98928H54.7388C59.5033 6.98928 63.3657 10.5253 63.3657 14.8872V50.113H63.3656Z" fill="black"/>
</svg>
