<svg width="120" height="45" viewBox="0 0 120 45" fill="none" xmlns="http://www.w3.org/2000/svg">
<path d="M50.2057 31.2072V43.5H40.4967V1.5H55.2508C58.8102 1.5 61.499 1.7289 63.4911 2.15863C65.4066 2.58628 66.9944 3.28168 68.1834 4.19479C69.7952 5.43265 71.0308 6.99897 71.7933 8.82331C72.5736 10.6902 73.0151 12.9539 73.0151 15.6421C73.0151 20.405 71.8098 23.8288 69.5573 26.1575C67.3172 28.4733 64.0175 29.7072 59.3311 29.7072H51.7057H50.2057V31.2072Z" fill="#00FFBB" stroke="black" stroke-width="3"/>
<path d="M53.2057 18.6884V12.5188H55.786C57.0767 12.5188 58.0977 12.594 58.8687 12.7351C59.6681 12.8814 60.0513 13.0732 60.2019 13.1933C60.5365 13.4602 60.908 14.1126 60.908 15.6421C60.908 17.078 60.5177 17.7087 60.135 18.0139C59.9773 18.1397 59.603 18.3289 58.8303 18.473C58.079 18.6131 57.0771 18.6884 55.786 18.6884H53.2057Z" fill="#00FFBB" stroke="black" stroke-width="3"/>
<path d="M11.209 31.2072V43.5H1.5V1.5H16.2542C19.8136 1.5 22.5023 1.7289 24.4945 2.15863C26.4099 2.58628 27.9977 3.28168 29.1867 4.19479C30.7985 5.43265 32.0341 6.99897 32.7966 8.82331C33.5769 10.6902 34.0184 12.9539 34.0184 15.6421C34.0184 20.405 32.8131 23.8288 30.5606 26.1575C28.3206 28.4733 25.0208 29.7072 20.3344 29.7072H12.709H11.209V31.2072Z" fill="#00FFBB" stroke="black" stroke-width="3"/>
<path d="M14.209 18.6884V12.5188H16.7224C18.0132 12.5188 19.0341 12.594 19.8052 12.7351C20.6046 12.8814 20.9877 13.0732 21.1383 13.1933C21.473 13.4602 21.8445 14.1126 21.8445 15.6421C21.8445 17.078 21.4541 17.7087 21.0714 18.0139C20.9137 18.1397 20.5395 18.3289 19.7668 18.473C19.0155 18.6131 18.0136 18.6884 16.7224 18.6884H14.209Z" fill="#00FFBB" stroke="black" stroke-width="3"/>
<path d="M103.648 40.1909L103.335 39.1079H102.207H85.485H84.3898L84.0562 40.151L82.9852 43.5H69.9359L85.8497 1.73117H103.022L117.875 43.5H104.606L103.648 40.1909Z" fill="#00FFBB" stroke="black" stroke-width="3"/>
<path d="M91.1472 28.089L94.0643 18.9041L96.7869 28.089H91.1472Z" fill="#FFCC00" stroke="black" stroke-width="3"/>
</svg>
