<svg width="71" height="62" viewBox="0 0 71 62" fill="none" xmlns="http://www.w3.org/2000/svg">
<path fill-rule="evenodd" clip-rule="evenodd" d="M48.6582 6.90182C52.6385 6.90182 56.2288 8.35874 58.7688 10.6945V10.6941C59.7834 10.6468 64.2962 9.86674 67.8264 7.70123C67.8264 7.70123 67.6476 10.9396 61.9507 14.4508C61.9507 14.4508 65.5025 14.2171 69.6134 12.6368C68.101 15.0582 65.2084 17.5936 62.5985 19.0751C62.5985 48.1357 27.9744 64.6849 1.38672 49.4295C14.0313 50.4635 21.895 44.5133 21.895 44.5133C11.3727 44.2011 8.87068 36.0859 8.87068 36.0859C12.1994 36.3981 15.1261 35.7931 15.1261 35.7931C3.17375 33.2379 4.04532 23.7765 4.04532 23.7765C6.9271 25.337 10.1442 25.2783 10.1442 25.2783C-0.35535 18.1385 5.9889 9.12551 5.9889 9.12551C12.1679 15.5624 24.9101 22.7126 35.051 21.7287C34.8338 20.8745 34.7184 19.9866 34.7184 19.0751C34.7184 12.352 40.9592 6.90182 48.6582 6.90182Z" fill="#2DAAE1"/>
<path d="M36.955 51.6281C27.0709 55.119 16.3032 54.7415 6.72071 50.6872C16.5702 50.0529 22.5142 45.6476 22.8034 45.4291C23.2341 45.1027 23.3928 44.5796 23.2027 44.1098C23.0125 43.6401 22.512 43.3204 21.9422 43.3038C18.0355 43.1879 14.885 41.9041 12.5785 39.4879C11.8738 38.7495 11.3543 38.0097 10.9849 37.3868C13.4696 37.3731 15.3455 36.9927 15.4457 36.9724C16.0692 36.8433 16.5106 36.3579 16.5128 35.7984C16.5155 35.2388 16.0784 34.7506 15.456 34.6177C7.86367 32.9943 5.98726 28.3724 5.54471 25.7466C7.95955 26.5176 10.0597 26.4916 10.1734 26.4897C10.7601 26.4789 11.2758 26.1468 11.4605 25.6605C11.6452 25.1738 11.4594 24.6383 10.9963 24.3238C3.98898 19.5585 5.20019 13.9522 6.34803 11.2953C7.30519 12.1784 8.36203 13.0573 9.50661 13.9206C10.0862 14.3581 10.9616 14.3023 11.4626 13.7962C11.9632 13.29 11.8998 12.5256 11.3202 12.0885C9.68754 10.8563 8.25152 9.59807 7.05168 8.34834C6.76513 8.04986 6.33178 7.88951 5.88759 7.91836C5.44287 7.94674 5.04094 8.16055 4.80747 8.49214C4.73542 8.59431 3.04211 11.0342 2.74634 14.4333C2.53779 16.8301 3.01015 20.059 5.81609 23.2297C5.46833 23.093 5.1184 22.9331 4.77605 22.7476C4.36545 22.5253 3.85139 22.5055 3.4202 22.6961C2.98848 22.8862 2.70193 23.259 2.66292 23.68C2.65317 23.7883 2.43433 26.3701 3.82322 29.2914C4.67313 31.0804 6.2489 33.2284 9.16318 34.8954C9.11497 34.8916 9.0673 34.8873 9.01909 34.8826C8.56353 34.8405 8.11393 34.9961 7.81709 35.2998C7.5197 35.6035 7.41299 36.0155 7.53162 36.4015C7.56033 36.4946 8.2591 38.7075 10.3646 40.9505C11.8673 42.5517 14.3325 44.4112 18.1027 45.2636C14.8764 46.8283 9.0933 48.8443 1.51617 48.2242C0.882395 48.1736 0.289246 48.5042 0.0785293 49.0293C-0.132729 49.5539 0.0931549 50.1366 0.625093 50.4417C7.54624 54.4132 15.2843 56.4345 23.0602 56.4345C28.093 56.4345 33.1426 55.5873 37.9945 53.8735C38.7047 53.6228 39.0476 52.9171 38.7605 52.2969C38.4734 51.6768 37.6652 51.3779 36.955 51.6281Z" fill="black"/>
<path d="M70.6345 11.818C70.2326 11.4362 69.5977 11.3204 69.0544 11.529C68.2489 11.8388 67.4645 12.0937 66.7273 12.3038C69.0078 9.90459 69.1958 8.03804 69.2109 7.75991C69.2369 7.29824 68.9591 6.864 68.4948 6.64073C68.0311 6.41794 67.4624 6.4449 67.029 6.71074C64.2837 8.39518 60.7888 9.19932 59.2742 9.42164C56.4081 7.01111 52.6651 5.69138 48.6582 5.69138C40.2068 5.69138 33.3312 11.6955 33.3312 19.0756C33.3312 19.5874 33.3647 20.0997 33.4314 20.6077C28.5611 20.69 23.6322 18.9493 20.2223 17.3902C19.5436 17.0799 18.7056 17.3093 18.3502 17.9015C17.9949 18.4942 18.2576 19.226 18.9358 19.5363C23.0315 21.408 29.1786 23.5168 35.2043 22.9326C35.5954 22.8948 35.9502 22.7131 36.1794 22.4331C36.408 22.1535 36.4903 21.8021 36.4047 21.4662C36.2054 20.6843 36.1046 19.8797 36.1046 19.0756C36.1046 13.0308 41.736 8.11325 48.6582 8.11325C52.1342 8.11325 55.3676 9.32609 57.7629 11.529C58.0565 11.7991 58.4698 11.9315 58.881 11.9017C59.798 11.8511 62.2188 11.4377 64.8222 10.4897C64.0367 11.3762 62.8727 12.4007 61.1506 13.4622C60.6414 13.7763 60.4345 14.3486 60.6452 14.8609C60.8565 15.3737 61.4328 15.7001 62.0547 15.6589C62.1527 15.6523 63.6749 15.5459 65.8682 15.0478C64.6575 16.1958 63.2448 17.2644 61.8429 18.06C61.4491 18.2837 61.2118 18.6655 61.2118 19.0756C61.2118 30.2441 55.7457 40.3999 46.2141 46.9385C45.6123 47.3515 45.5072 48.1126 45.9807 48.6386C46.2542 48.9427 46.661 49.1017 47.0722 49.1017C47.3717 49.1017 47.674 49.017 47.928 48.8429C52.7951 45.5038 56.8144 41.1572 59.551 36.2723C62.3905 31.2039 63.8791 25.6388 63.9799 19.7208C66.7533 18.015 69.3929 15.5194 70.8306 13.2172C71.115 12.7621 71.0359 12.1997 70.6345 11.818Z" fill="black"/>
<path d="M41.8135 49.5524L41.8124 49.5529C41.138 49.8703 40.8861 50.604 41.249 51.1929C41.4998 51.5992 41.9776 51.83 42.4716 51.83C42.6937 51.83 42.919 51.7832 43.1281 51.6848C43.8025 51.3679 44.0544 50.6333 43.6915 50.0449C43.3286 49.4559 42.4873 49.2355 41.8135 49.5524Z" fill="black"/>
<path d="M14.0265 16.9559C14.267 17.1012 14.5422 17.1712 14.8141 17.1712C15.254 17.1712 15.6862 16.989 15.9554 16.6494C16.3915 16.0993 16.2344 15.3453 15.605 14.9645L15.6039 14.964C14.9744 14.5833 14.111 14.7209 13.6749 15.2706C13.2389 15.8207 13.3965 16.5752 14.0265 16.9559Z" fill="black"/>
</svg>
