<svg width="74" height="60" viewBox="0 0 74 60" fill="none" xmlns="http://www.w3.org/2000/svg">
<g clip-path="url(#clip0)">
<path fill-rule="evenodd" clip-rule="evenodd" d="M39.208 25.5601L30.2634 21.0796V30.0407L30.264 39.0019L39.208 34.5213L48.1531 30.0407L39.208 25.5601Z" fill="#ffa600"/>
<path fill-rule="evenodd" clip-rule="evenodd" d="M30.2635 21.0796L39.208 25.5602L48.1532 30.0408L39.208 34.5214L30.264 39.0019L30.2635 30.0408V21.0796ZM1.99689 40.2251C2.75455 46.0987 5.66324 48.4419 11.5495 49.1863C22.6394 50.5879 51.3605 50.5879 62.451 49.1863C68.3367 48.4419 71.2454 46.0991 72.0031 40.2251C72.7444 34.4834 72.7444 25.5982 72.0031 19.8564C71.2454 13.9829 68.3367 11.6396 62.451 10.8952C51.3605 9.49358 22.6394 9.49358 11.5495 10.8952C5.66324 11.6396 2.75455 13.9829 1.99689 19.8564C1.25616 25.5982 1.25616 34.4834 1.99689 40.2251Z" fill="#FF0000"/>
<path d="M47.6733 48.9249C44.2779 49.0183 40.6872 49.0654 37 49.0654C26.3414 49.0654 16.9107 48.6777 11.772 48.0281C6.28146 47.3342 4.09995 45.26 3.43431 40.1029C2.70657 34.4605 2.70657 25.6206 3.43431 19.9782C4.09995 14.821 6.28146 12.7474 11.772 12.0534C12.6634 11.9403 13.7107 11.8332 14.8856 11.7343C15.6799 11.6675 16.2569 11.0916 16.1745 10.4476C16.0921 9.80395 15.3807 9.33566 14.5875 9.40295C13.3635 9.50595 12.2665 9.61855 11.3265 9.73712C7.9018 10.1702 5.50122 11.1026 3.77249 12.6714C1.99352 14.2845 0.972763 16.529 0.55893 19.7347C-0.18631 25.5139 -0.18631 34.5676 0.55893 40.3469C0.972763 43.5526 1.99352 45.7965 3.77249 47.4102C5.50122 48.9789 7.9018 49.9114 11.3265 50.344C16.6036 51.0114 26.2014 51.4096 37 51.4096C40.7194 51.4096 44.3434 51.362 47.771 51.2677C48.5687 51.2458 49.1937 50.7038 49.1666 50.0569C49.1395 49.4101 48.4744 48.9034 47.6733 48.9249Z" fill="black"/>
<path d="M73.441 19.7347C73.0272 16.5294 72.0065 14.285 70.228 12.6714C68.4987 11.1026 66.0982 10.1702 62.6735 9.73758C57.3958 9.07016 47.798 8.67191 37 8.67191C33.2805 8.67191 29.6571 8.71997 26.2296 8.81381C25.4313 8.83578 24.8063 9.37778 24.8334 10.0246C24.8605 10.6719 25.5261 11.1795 26.3272 11.1566C29.722 11.0633 33.3133 11.0161 37.0005 11.0161C47.658 11.0161 57.0892 11.4038 62.2286 12.0534C67.7185 12.7478 69.9006 14.8215 70.5657 19.9787C71.294 25.6211 71.294 34.4609 70.5657 40.1033C69.9006 45.2605 67.7185 47.3342 62.2286 48.0286C61.3371 48.1412 60.2893 48.2483 59.1144 48.3472C58.3206 48.414 57.7436 48.9899 57.826 49.634C57.9034 50.2368 58.5306 50.685 59.2617 50.685C59.312 50.685 59.3622 50.6827 59.413 50.6786C60.6365 50.5756 61.7334 50.4634 62.6735 50.3444C66.0982 49.9114 68.4987 48.9794 70.228 47.4106C72.0065 45.797 73.0272 43.5526 73.441 40.3473C74.1863 34.568 74.1863 25.5139 73.441 19.7347Z" fill="black"/>
<path d="M48.9125 29.0437L31.0233 20.0821C30.5773 19.8587 30.0173 19.8486 29.5594 20.0555C29.1021 20.2625 28.8181 20.6543 28.8181 21.0791V39.0019C28.8181 39.4267 29.1021 39.8186 29.5594 40.0255C29.779 40.1244 30.0212 40.1738 30.2634 40.1738C30.5276 40.1738 30.7907 40.1152 31.0233 39.9989L48.9125 31.0377C49.3387 30.824 49.5984 30.4468 49.5984 30.0407C49.5984 29.6342 49.3387 29.257 48.9125 29.0437ZM31.7093 36.9003V23.1812L45.4025 30.0407L31.7093 36.9003Z" fill="black"/>
<path d="M20.5008 11.3713C20.533 11.3713 20.5658 11.3704 20.5985 11.3691C21.3951 11.326 21.9975 10.7675 21.9445 10.1216C21.8914 9.47574 21.2015 8.98639 20.406 9.02988H20.4049C19.6082 9.07291 19.0064 9.63138 19.0595 10.2773C19.1103 10.8966 19.746 11.3713 20.5008 11.3713Z" fill="black"/>
<path d="M53.402 48.7129C52.6053 48.7555 52.0024 49.3139 52.0554 49.9598C52.1062 50.5792 52.742 51.0539 53.4962 51.0539C53.529 51.0539 53.5612 51.053 53.5939 51.0516H53.595C54.3917 51.0086 54.9935 50.4501 54.9404 49.8042C54.8874 49.1583 54.1997 48.6703 53.402 48.7129Z" fill="black"/>
</g>
<defs>
<clipPath id="clip0">
<rect width="74" height="60" fill="white"/>
</clipPath>
</defs>
</svg>
